<svg xmlns="http://www.w3.org/2000/svg" xmlns:xlink="http://www.w3.org/1999/xlink" width="500" zoomAndPan="magnify" viewBox="0 0 375 374.999991" height="500" preserveAspectRatio="xMidYMid meet" version="1.0"><defs><g/><clipPath id="c9a2fc66de"><path d="M 100.363281 71.707031 L 212 71.707031 L 212 210 L 100.363281 210 Z M 100.363281 71.707031 " clip-rule="nonzero"/></clipPath><clipPath id="9b8480b428"><path d="M 185 75 L 282.613281 75 L 282.613281 205 L 185 205 Z M 185 75 " clip-rule="nonzero"/></clipPath><clipPath id="7b7cae9494"><path d="M 148 0.160156 L 178 0.160156 L 178 31 L 148 31 Z M 148 0.160156 " clip-rule="nonzero"/></clipPath><clipPath id="83c1a2edee"><path d="M 183 0.160156 L 214 0.160156 L 214 31 L 183 31 Z M 183 0.160156 " clip-rule="nonzero"/></clipPath><clipPath id="8cc704682f"><rect x="0" width="220" y="0" height="39"/></clipPath></defs><rect x="-37.5" width="450" fill="#ffffff" y="-37.499999" height="449.999989" fill-opacity="1"/><rect x="-37.5" width="450" fill="#ffffff" y="-37.499999" height="449.999989" fill-opacity="1"/><g clip-path="url(#c9a2fc66de)"><path fill="#ff2828" d="M 201.664062 162.449219 L 186.277344 147.917969 C 186.277344 147.917969 197 121.269531 201.664062 112.925781 C 203.65625 109.359375 206.039062 104.652344 207.414062 99.453125 C 207.535156 99.476562 207.660156 99.488281 207.789062 99.488281 C 209.796875 99.488281 211.425781 96.566406 211.425781 92.964844 C 211.425781 90.257812 210.507812 87.9375 209.195312 86.949219 C 209.195312 86.949219 207.375 88.289062 207.257812 90.921875 C 207.257812 90.921875 206.753906 88.058594 209.042969 85.601562 C 208.65625 82.714844 207.957031 81.023438 206.230469 78.941406 C 203.171875 75.246094 198.488281 74.011719 191.382812 73.6875 C 184.714844 73.382812 179.910156 72.589844 174.269531 71.976562 C 172.324219 71.765625 173.15625 75.496094 173.675781 76.398438 C 174.726562 78.21875 176.214844 78.824219 181.527344 80.382812 C 181.527344 80.382812 177.277344 80.378906 172.933594 77.9375 C 171.949219 79.714844 171.402344 82.050781 171.21875 84.703125 C 174.695312 88.296875 173.953125 92.5625 173.953125 92.5625 C 173.777344 88.753906 171.144531 86.8125 171.144531 86.8125 C 169.726562 87.707031 168.714844 90.121094 168.714844 92.964844 C 168.714844 96.566406 170.339844 99.488281 172.347656 99.488281 C 172.542969 99.488281 172.730469 99.457031 172.914062 99.410156 C 174.484375 105.375 176.949219 110.964844 179.691406 114.273438 C 178.238281 115.679688 176.847656 117.023438 175.554688 118.027344 C 183.71875 117.652344 190.070312 123.296875 190.070312 123.296875 C 190.070312 123.296875 178.773438 116.429688 170.023438 121.480469 C 157.90625 128.480469 144.757812 123.296875 144.757812 123.296875 C 144.757812 123.296875 156.632812 125.4375 169.21875 119.59375 C 169.488281 119.46875 169.753906 119.351562 170.023438 119.246094 C 163.433594 116.703125 157.316406 112.894531 141.398438 120.617188 C 141.398438 120.617188 137.269531 122.355469 134.910156 126.011719 C 134.910156 126.011719 135.554688 122.675781 139.160156 119.679688 C 136 118.5625 130.054688 117.207031 124.933594 120.316406 C 124.933594 120.316406 120.804688 122.050781 118.445312 125.707031 C 118.445312 125.707031 120.238281 121.261719 125.253906 118.023438 C 126.007812 113.5 128.355469 103.316406 134.800781 97.066406 C 135.097656 96.773438 135.375 96.519531 135.636719 96.296875 C 133.5625 96.6875 131.886719 97.507812 131.886719 97.507812 C 135.246094 94.394531 138.253906 95.648438 140.449219 95.457031 C 143.046875 95.234375 146.15625 96.558594 147.746094 96.328125 C 149.871094 96.019531 153.214844 95.648438 154.042969 95.191406 C 156.332031 93.914062 154.765625 91.292969 152.960938 91.210938 C 150.617188 91.101562 157.28125 91.28125 157.097656 88.585938 C 156.8125 84.417969 157.28125 83.089844 156.054688 81.449219 C 155.5 80.714844 149.878906 75.609375 148.160156 75.613281 C 143.492188 75.625 136.375 79.984375 132.550781 81.707031 C 129.320312 83.164062 127.835938 86.097656 126.410156 88.421875 C 123.6875 92.863281 100.363281 121.898438 100.601562 130.695312 C 100.863281 140.257812 119.773438 150.109375 138.941406 143.71875 C 138.941406 143.71875 143.496094 141.605469 146.039062 139.722656 C 146.039062 139.722656 143.300781 142.894531 139.929688 144.996094 C 141.007812 146.367188 142.296875 148.152344 143.722656 150.21875 C 148.277344 155.929688 156.675781 164.855469 167.503906 169.285156 C 167.503906 169.285156 161.699219 168.558594 153.652344 165.347656 C 155.464844 168.191406 157.289062 171.074219 159.050781 173.851562 C 161.21875 177.269531 164.015625 180.246094 167.324219 182.574219 C 170.15625 184.566406 173.261719 186.359375 176.597656 187.722656 C 176.597656 187.722656 172.414062 187.199219 166.230469 185.082031 C 168.109375 187.960938 169.6875 190.300781 170.789062 191.761719 C 173.507812 195.378906 177.976562 198.757812 176.773438 209.398438 L 201.664062 162.449219 " fill-opacity="1" fill-rule="nonzero"/></g><g clip-path="url(#9b8480b428)"><path fill="#322f30" d="M 256.355469 88.421875 C 254.929688 86.097656 253.441406 83.164062 250.210938 81.707031 C 246.386719 79.984375 239.269531 75.625 234.605469 75.613281 C 232.882812 75.609375 227.261719 80.714844 226.707031 81.449219 C 225.480469 83.089844 225.949219 84.417969 225.664062 88.585938 C 225.480469 91.28125 232.144531 91.101562 229.800781 91.210938 C 228 91.292969 226.429688 93.914062 228.71875 95.191406 C 229.546875 95.648438 232.890625 96.019531 235.015625 96.328125 C 236.605469 96.558594 239.71875 95.234375 242.3125 95.457031 C 244.507812 95.648438 247.515625 94.394531 250.875 97.507812 C 250.875 97.507812 249.199219 96.6875 247.128906 96.296875 C 247.386719 96.519531 247.664062 96.773438 247.964844 97.066406 C 254.410156 103.316406 256.753906 113.5 257.511719 118.023438 C 262.523438 121.261719 264.316406 125.707031 264.316406 125.707031 C 261.957031 122.050781 257.828125 120.316406 257.828125 120.316406 C 252.710938 117.207031 246.761719 118.5625 243.605469 119.679688 C 247.207031 122.675781 247.851562 126.011719 247.851562 126.011719 C 245.492188 122.355469 241.363281 120.617188 241.363281 120.617188 C 234.25 117.167969 229.097656 116.019531 224.980469 116.03125 L 221.808594 121.644531 C 232.214844 124.863281 240.925781 123.296875 240.925781 123.296875 C 240.925781 123.296875 231.121094 127.160156 220.640625 123.710938 L 207.929688 146.210938 L 221.320312 159.03125 L 185.65625 199.46875 C 185.65625 199.46875 212.183594 211.371094 230.363281 200.117188 C 218.15625 188.949219 216.949219 183.445312 218.675781 177.265625 C 221.019531 168.882812 235.382812 146.71875 235.382812 146.71875 C 254.554688 153.109375 281.902344 140.257812 282.160156 130.695312 C 282.398438 121.898438 259.074219 92.863281 256.355469 88.421875 " fill-opacity="1" fill-rule="nonzero"/></g><g transform="matrix(1, 0, 0, 1, 83, 230)"><g clip-path="url(#8cc704682f)"><g fill="#322f30" fill-opacity="1"><g transform="translate(1.029168, 29.764279)"><g><path d="M 3.171875 -28.46875 L 27.5 -28.46875 L 27.5 -22.625 L 10.3125 -22.625 L 10.3125 -17.25 L 26 -17.25 L 26 -11.40625 L 10.3125 -11.40625 L 10.3125 0 L 3.171875 0 Z M 3.171875 -28.46875 "/></g></g></g><g fill="#322f30" fill-opacity="1"><g transform="translate(31.46293, 29.764279)"><g><path d="M 10.4375 -28.46875 L 10.4375 0 L 3.296875 0 L 3.296875 -28.46875 Z M 10.4375 -28.46875 "/></g></g></g><g fill="#322f30" fill-opacity="1"><g transform="translate(47.150433, 29.764279)"><g><path d="M -0.234375 -28.46875 L 26.4375 -28.46875 L 26.4375 -22.625 L 16.671875 -22.625 L 16.671875 0 L 9.53125 0 L 9.53125 -22.625 L -0.234375 -22.625 Z M -0.234375 -28.46875 "/></g></g></g><g fill="#322f30" fill-opacity="1"><g transform="translate(75.309513, 29.764279)"><g><path d="M 3.171875 -28.46875 L 11.96875 -28.46875 L 26.203125 -8.390625 L 26.203125 -28.46875 L 33.0625 -28.46875 L 33.0625 0 L 24.390625 0 L 10.046875 -20.28125 L 10.046875 0 L 3.171875 0 Z M 3.171875 -28.46875 "/></g></g></g><g fill="#322f30" fill-opacity="1"><g transform="translate(113.508601, 29.764279)"><g><path d="M 3.171875 -28.46875 L 28.46875 -28.46875 L 28.46875 -22.625 L 10.3125 -22.625 L 10.3125 -17.890625 L 26.46875 -17.890625 L 26.46875 -12.046875 L 10.3125 -12.046875 L 10.3125 -5.84375 L 28.46875 -5.84375 L 28.46875 0 L 3.171875 0 Z M 3.171875 -28.46875 "/></g></g></g><g clip-path="url(#7b7cae9494)"><g fill="#322f30" fill-opacity="1"><g transform="translate(146.060182, 29.764279)"><g><path d="M 30.59375 -19.734375 L 23.484375 -19.734375 C 23.171875 -22.554688 20.847656 -23.96875 16.515625 -23.96875 C 14.441406 -23.96875 12.867188 -23.671875 11.796875 -23.078125 C 10.734375 -22.492188 10.203125 -21.703125 10.203125 -20.703125 C 10.203125 -19.660156 10.648438 -18.972656 11.546875 -18.640625 C 12.453125 -18.316406 13.925781 -18.050781 15.96875 -17.84375 L 21.25 -17.296875 C 24.832031 -16.898438 27.492188 -16.035156 29.234375 -14.703125 C 30.972656 -13.367188 31.84375 -11.445312 31.84375 -8.9375 C 31.84375 -5.832031 30.566406 -3.441406 28.015625 -1.765625 C 25.472656 -0.0859375 21.703125 0.75 16.703125 0.75 C 11.890625 0.75 8.234375 -0.125 5.734375 -1.875 C 3.242188 -3.632812 2 -6.289062 2 -9.84375 L 9.296875 -9.84375 C 9.265625 -6.394531 12.019531 -4.671875 17.5625 -4.671875 C 19.6875 -4.671875 21.300781 -4.976562 22.40625 -5.59375 C 23.519531 -6.207031 24.078125 -7.0625 24.078125 -8.15625 C 24.078125 -9.25 23.625 -9.992188 22.71875 -10.390625 C 21.820312 -10.785156 20.40625 -11.070312 18.46875 -11.25 L 13.453125 -11.765625 C 9.816406 -12.128906 7.109375 -12.953125 5.328125 -14.234375 C 3.554688 -15.515625 2.671875 -17.359375 2.671875 -19.765625 C 2.671875 -21.546875 3.21875 -23.144531 4.3125 -24.5625 C 5.414062 -25.988281 6.992188 -27.117188 9.046875 -27.953125 C 11.097656 -28.796875 13.546875 -29.21875 16.390625 -29.21875 C 20.941406 -29.21875 24.445312 -28.378906 26.90625 -26.703125 C 29.363281 -25.035156 30.59375 -22.710938 30.59375 -19.734375 Z M 30.59375 -19.734375 "/></g></g></g></g><g clip-path="url(#83c1a2edee)"><g fill="#322f30" fill-opacity="1"><g transform="translate(181.866922, 29.764279)"><g><path d="M 30.59375 -19.734375 L 23.484375 -19.734375 C 23.171875 -22.554688 20.847656 -23.96875 16.515625 -23.96875 C 14.441406 -23.96875 12.867188 -23.671875 11.796875 -23.078125 C 10.734375 -22.492188 10.203125 -21.703125 10.203125 -20.703125 C 10.203125 -19.660156 10.648438 -18.972656 11.546875 -18.640625 C 12.453125 -18.316406 13.925781 -18.050781 15.96875 -17.84375 L 21.25 -17.296875 C 24.832031 -16.898438 27.492188 -16.035156 29.234375 -14.703125 C 30.972656 -13.367188 31.84375 -11.445312 31.84375 -8.9375 C 31.84375 -5.832031 30.566406 -3.441406 28.015625 -1.765625 C 25.472656 -0.0859375 21.703125 0.75 16.703125 0.75 C 11.890625 0.75 8.234375 -0.125 5.734375 -1.875 C 3.242188 -3.632812 2 -6.289062 2 -9.84375 L 9.296875 -9.84375 C 9.265625 -6.394531 12.019531 -4.671875 17.5625 -4.671875 C 19.6875 -4.671875 21.300781 -4.976562 22.40625 -5.59375 C 23.519531 -6.207031 24.078125 -7.0625 24.078125 -8.15625 C 24.078125 -9.25 23.625 -9.992188 22.71875 -10.390625 C 21.820312 -10.785156 20.40625 -11.070312 18.46875 -11.25 L 13.453125 -11.765625 C 9.816406 -12.128906 7.109375 -12.953125 5.328125 -14.234375 C 3.554688 -15.515625 2.671875 -17.359375 2.671875 -19.765625 C 2.671875 -21.546875 3.21875 -23.144531 4.3125 -24.5625 C 5.414062 -25.988281 6.992188 -27.117188 9.046875 -27.953125 C 11.097656 -28.796875 13.546875 -29.21875 16.390625 -29.21875 C 20.941406 -29.21875 24.445312 -28.378906 26.90625 -26.703125 C 29.363281 -25.035156 30.59375 -22.710938 30.59375 -19.734375 Z M 30.59375 -19.734375 "/></g></g></g></g></g></g><g fill="#ac1929" fill-opacity="1"><g transform="translate(74.002308, 282.928225)"><g><path d="M 8.75 -7.4375 C 8.894531 -7.4375 8.96875 -7.363281 8.96875 -7.21875 L 8.96875 -0.21875 C 8.96875 -0.0703125 8.894531 0 8.75 0 L 7.484375 0 C 7.335938 0 7.265625 -0.0703125 7.265625 -0.21875 L 7.265625 -2.953125 L 2.703125 -2.953125 L 2.703125 -0.21875 C 2.703125 -0.0703125 2.632812 0 2.5 0 L 1.21875 0 C 1.082031 0 1.015625 -0.0703125 1.015625 -0.21875 L 1.015625 -7.21875 C 1.015625 -7.363281 1.082031 -7.4375 1.21875 -7.4375 L 2.5 -7.4375 C 2.632812 -7.4375 2.703125 -7.363281 2.703125 -7.21875 L 2.703125 -4.5 L 7.265625 -4.5 L 7.265625 -7.21875 C 7.265625 -7.363281 7.335938 -7.4375 7.484375 -7.4375 Z M 8.75 -7.4375 "/></g></g></g><g fill="#ac1929" fill-opacity="1"><g transform="translate(90.156192, 282.928225)"><g><path d="M 7.734375 -1.40625 C 7.816406 -1.40625 7.875 -1.390625 7.90625 -1.359375 C 7.9375 -1.328125 7.953125 -1.269531 7.953125 -1.1875 L 7.953125 -0.21875 C 7.953125 -0.0703125 7.878906 0 7.734375 0 L 1.21875 0 C 1.082031 0 1.015625 -0.0703125 1.015625 -0.21875 L 1.015625 -7.21875 C 1.015625 -7.363281 1.082031 -7.4375 1.21875 -7.4375 L 7.625 -7.4375 C 7.769531 -7.4375 7.84375 -7.363281 7.84375 -7.21875 L 7.84375 -6.25 C 7.84375 -6.101562 7.769531 -6.03125 7.625 -6.03125 L 2.703125 -6.03125 L 2.703125 -4.4375 L 6.421875 -4.4375 C 6.503906 -4.4375 6.5625 -4.414062 6.59375 -4.375 C 6.625 -4.34375 6.640625 -4.285156 6.640625 -4.203125 L 6.640625 -3.28125 C 6.640625 -3.144531 6.566406 -3.078125 6.421875 -3.078125 L 2.703125 -3.078125 L 2.703125 -1.40625 Z M 7.734375 -1.40625 "/></g></g></g><g fill="#ac1929" fill-opacity="1"><g transform="translate(104.791811, 282.928225)"><g><path d="M 8.484375 -0.3125 C 8.503906 -0.269531 8.515625 -0.226562 8.515625 -0.1875 C 8.515625 -0.0625 8.4375 0 8.28125 0 L 7.0625 0 C 6.988281 0 6.925781 -0.0078125 6.875 -0.03125 C 6.832031 -0.0625 6.789062 -0.117188 6.75 -0.203125 L 6.15625 -1.515625 L 2.234375 -1.515625 L 1.625 -0.203125 C 1.59375 -0.128906 1.550781 -0.078125 1.5 -0.046875 C 1.457031 -0.015625 1.394531 0 1.3125 0 L 0.09375 0 C 0.0195312 0 -0.0351562 -0.015625 -0.078125 -0.046875 C -0.117188 -0.0859375 -0.140625 -0.140625 -0.140625 -0.203125 C -0.140625 -0.242188 -0.128906 -0.285156 -0.109375 -0.328125 L 3.234375 -7.25 C 3.265625 -7.320312 3.300781 -7.367188 3.34375 -7.390625 C 3.394531 -7.421875 3.457031 -7.4375 3.53125 -7.4375 L 4.859375 -7.4375 C 4.929688 -7.4375 4.988281 -7.421875 5.03125 -7.390625 C 5.082031 -7.367188 5.125 -7.320312 5.15625 -7.25 Z M 4.171875 -5.734375 L 3.390625 -4.078125 L 2.828125 -2.890625 L 5.5625 -2.890625 L 4.234375 -5.734375 Z M 4.171875 -5.734375 "/></g></g></g><g fill="#ac1929" fill-opacity="1"><g transform="translate(119.353112, 282.928225)"><g><path d="M 1.21875 0 C 1.082031 0 1.015625 -0.0703125 1.015625 -0.21875 L 1.015625 -7.21875 C 1.015625 -7.363281 1.082031 -7.4375 1.21875 -7.4375 L 2.5 -7.4375 C 2.632812 -7.4375 2.703125 -7.363281 2.703125 -7.21875 L 2.703125 -1.5 L 7.296875 -1.5 C 7.429688 -1.5 7.5 -1.425781 7.5 -1.28125 L 7.5 -0.21875 C 7.5 -0.0703125 7.429688 0 7.296875 0 Z M 1.21875 0 "/></g></g></g><g fill="#ac1929" fill-opacity="1"><g transform="translate(133.19244, 282.928225)"><g><path d="M 7.75 -7.4375 C 7.894531 -7.4375 7.96875 -7.363281 7.96875 -7.21875 L 7.96875 -6.109375 C 7.96875 -5.960938 7.894531 -5.890625 7.75 -5.890625 L 4.875 -5.890625 L 4.875 -0.21875 C 4.875 -0.0703125 4.804688 0 4.671875 0 L 3.390625 0 C 3.242188 0 3.171875 -0.0703125 3.171875 -0.21875 L 3.171875 -5.890625 L 0.296875 -5.890625 C 0.148438 -5.890625 0.078125 -5.960938 0.078125 -6.109375 L 0.078125 -7.21875 C 0.078125 -7.363281 0.148438 -7.4375 0.296875 -7.4375 Z M 7.75 -7.4375 "/></g></g></g><g fill="#ac1929" fill-opacity="1"><g transform="translate(147.424609, 282.928225)"><g><path d="M 8.75 -7.4375 C 8.894531 -7.4375 8.96875 -7.363281 8.96875 -7.21875 L 8.96875 -0.21875 C 8.96875 -0.0703125 8.894531 0 8.75 0 L 7.484375 0 C 7.335938 0 7.265625 -0.0703125 7.265625 -0.21875 L 7.265625 -2.953125 L 2.703125 -2.953125 L 2.703125 -0.21875 C 2.703125 -0.0703125 2.632812 0 2.5 0 L 1.21875 0 C 1.082031 0 1.015625 -0.0703125 1.015625 -0.21875 L 1.015625 -7.21875 C 1.015625 -7.363281 1.082031 -7.4375 1.21875 -7.4375 L 2.5 -7.4375 C 2.632812 -7.4375 2.703125 -7.363281 2.703125 -7.21875 L 2.703125 -4.5 L 7.265625 -4.5 L 7.265625 -7.21875 C 7.265625 -7.363281 7.335938 -7.4375 7.484375 -7.4375 Z M 8.75 -7.4375 "/></g></g></g><g fill="#ac1929" fill-opacity="1"><g transform="translate(163.578493, 282.928225)"><g><path d="M 3.34375 0 C 3.257812 0 3.203125 -0.015625 3.171875 -0.046875 C 3.140625 -0.078125 3.125 -0.132812 3.125 -0.21875 L 3.125 -2.75 L -0.15625 -7.078125 C -0.195312 -7.140625 -0.21875 -7.195312 -0.21875 -7.25 C -0.21875 -7.375 -0.128906 -7.4375 0.046875 -7.4375 L 1.34375 -7.4375 C 1.414062 -7.4375 1.476562 -7.421875 1.53125 -7.390625 C 1.582031 -7.367188 1.632812 -7.328125 1.6875 -7.265625 L 3.9375 -4.265625 L 4 -4.265625 L 6.265625 -7.28125 C 6.304688 -7.332031 6.351562 -7.367188 6.40625 -7.390625 C 6.457031 -7.421875 6.519531 -7.4375 6.59375 -7.4375 L 7.890625 -7.4375 C 7.972656 -7.4375 8.035156 -7.421875 8.078125 -7.390625 C 8.128906 -7.359375 8.15625 -7.3125 8.15625 -7.25 C 8.15625 -7.207031 8.128906 -7.15625 8.078125 -7.09375 L 4.828125 -2.75 L 4.828125 -0.21875 C 4.828125 -0.0703125 4.753906 0 4.609375 0 Z M 3.34375 0 "/></g></g></g><g fill="#ac1929" fill-opacity="1"><g transform="translate(177.693864, 282.928225)"><g/></g></g><g fill="#ac1929" fill-opacity="1"><g transform="translate(187.042096, 282.928225)"><g><path d="M 1.21875 0 C 1.082031 0 1.015625 -0.0703125 1.015625 -0.21875 L 1.015625 -7.21875 C 1.015625 -7.363281 1.082031 -7.4375 1.21875 -7.4375 L 2.5 -7.4375 C 2.632812 -7.4375 2.703125 -7.363281 2.703125 -7.21875 L 2.703125 -1.5 L 7.296875 -1.5 C 7.429688 -1.5 7.5 -1.425781 7.5 -1.28125 L 7.5 -0.21875 C 7.5 -0.0703125 7.429688 0 7.296875 0 Z M 1.21875 0 "/></g></g></g><g fill="#ac1929" fill-opacity="1"><g transform="translate(200.881423, 282.928225)"><g><path d="M 4.4375 -6.0625 L 4.4375 -1.375 L 6.4375 -1.375 C 6.582031 -1.375 6.65625 -1.304688 6.65625 -1.171875 L 6.65625 -0.21875 C 6.65625 -0.0703125 6.582031 0 6.4375 0 L 0.75 0 C 0.601562 0 0.53125 -0.0703125 0.53125 -0.21875 L 0.53125 -1.171875 C 0.53125 -1.304688 0.601562 -1.375 0.75 -1.375 L 2.734375 -1.375 L 2.734375 -6.0625 L 0.75 -6.0625 C 0.601562 -6.0625 0.53125 -6.128906 0.53125 -6.265625 L 0.53125 -7.21875 C 0.53125 -7.363281 0.601562 -7.4375 0.75 -7.4375 L 6.4375 -7.4375 C 6.582031 -7.4375 6.65625 -7.363281 6.65625 -7.21875 L 6.65625 -6.265625 C 6.65625 -6.128906 6.582031 -6.0625 6.4375 -6.0625 Z M 4.4375 -6.0625 "/></g></g></g><g fill="#ac1929" fill-opacity="1"><g transform="translate(214.242972, 282.928225)"><g><path d="M 7.40625 -7.4375 C 7.539062 -7.4375 7.609375 -7.363281 7.609375 -7.21875 L 7.609375 -6.203125 C 7.609375 -6.066406 7.539062 -6 7.40625 -6 L 2.703125 -6 L 2.703125 -4.1875 L 6.140625 -4.1875 C 6.285156 -4.1875 6.359375 -4.113281 6.359375 -3.96875 L 6.359375 -2.953125 C 6.359375 -2.804688 6.285156 -2.734375 6.140625 -2.734375 L 2.703125 -2.734375 L 2.703125 -0.21875 C 2.703125 -0.0703125 2.632812 0 2.5 0 L 1.21875 0 C 1.082031 0 1.015625 -0.0703125 1.015625 -0.21875 L 1.015625 -7.21875 C 1.015625 -7.363281 1.082031 -7.4375 1.21875 -7.4375 Z M 7.40625 -7.4375 "/></g></g></g><g fill="#ac1929" fill-opacity="1"><g transform="translate(228.294644, 282.928225)"><g><path d="M 7.734375 -1.40625 C 7.816406 -1.40625 7.875 -1.390625 7.90625 -1.359375 C 7.9375 -1.328125 7.953125 -1.269531 7.953125 -1.1875 L 7.953125 -0.21875 C 7.953125 -0.0703125 7.878906 0 7.734375 0 L 1.21875 0 C 1.082031 0 1.015625 -0.0703125 1.015625 -0.21875 L 1.015625 -7.21875 C 1.015625 -7.363281 1.082031 -7.4375 1.21875 -7.4375 L 7.625 -7.4375 C 7.769531 -7.4375 7.84375 -7.363281 7.84375 -7.21875 L 7.84375 -6.25 C 7.84375 -6.101562 7.769531 -6.03125 7.625 -6.03125 L 2.703125 -6.03125 L 2.703125 -4.4375 L 6.421875 -4.4375 C 6.503906 -4.4375 6.5625 -4.414062 6.59375 -4.375 C 6.625 -4.34375 6.640625 -4.285156 6.640625 -4.203125 L 6.640625 -3.28125 C 6.640625 -3.144531 6.566406 -3.078125 6.421875 -3.078125 L 2.703125 -3.078125 L 2.703125 -1.40625 Z M 7.734375 -1.40625 "/></g></g></g><g fill="#ac1929" fill-opacity="1"><g transform="translate(242.930264, 282.928225)"><g><path d="M 2.5 0.03125 C 1.90625 0.03125 1.46875 -0.109375 1.1875 -0.390625 C 0.914062 -0.671875 0.78125 -1.109375 0.78125 -1.703125 L 0.78125 -2.15625 C 0.78125 -2.300781 0.851562 -2.375 1 -2.375 L 2.34375 -2.375 C 2.476562 -2.375 2.546875 -2.300781 2.546875 -2.15625 L 2.546875 -1.875 C 2.546875 -1.664062 2.59375 -1.515625 2.6875 -1.421875 C 2.789062 -1.328125 2.953125 -1.28125 3.171875 -1.28125 L 5.96875 -1.28125 C 6.207031 -1.28125 6.375 -1.328125 6.46875 -1.421875 C 6.570312 -1.523438 6.625 -1.6875 6.625 -1.90625 L 6.625 -2.40625 C 6.625 -2.644531 6.570312 -2.8125 6.46875 -2.90625 C 6.375 -3.007812 6.207031 -3.0625 5.96875 -3.0625 L 2.65625 -3.0625 C 2.0625 -3.0625 1.625 -3.195312 1.34375 -3.46875 C 1.0625 -3.75 0.921875 -4.1875 0.921875 -4.78125 L 0.921875 -5.75 C 0.921875 -6.34375 1.0625 -6.773438 1.34375 -7.046875 C 1.625 -7.328125 2.0625 -7.46875 2.65625 -7.46875 L 6.296875 -7.46875 C 6.890625 -7.46875 7.320312 -7.328125 7.59375 -7.046875 C 7.875 -6.773438 8.015625 -6.34375 8.015625 -5.75 L 8.015625 -5.296875 C 8.015625 -5.160156 7.945312 -5.09375 7.8125 -5.09375 L 6.46875 -5.09375 C 6.332031 -5.09375 6.265625 -5.160156 6.265625 -5.296875 L 6.265625 -5.5625 C 6.265625 -5.769531 6.210938 -5.921875 6.109375 -6.015625 C 6.003906 -6.109375 5.84375 -6.15625 5.625 -6.15625 L 3.296875 -6.15625 C 3.066406 -6.15625 2.898438 -6.101562 2.796875 -6 C 2.703125 -5.90625 2.65625 -5.75 2.65625 -5.53125 L 2.65625 -5 C 2.65625 -4.78125 2.703125 -4.617188 2.796875 -4.515625 C 2.898438 -4.410156 3.066406 -4.359375 3.296875 -4.359375 L 6.609375 -4.359375 C 7.210938 -4.359375 7.648438 -4.21875 7.921875 -3.9375 C 8.203125 -3.664062 8.34375 -3.234375 8.34375 -2.640625 L 8.34375 -1.703125 C 8.34375 -1.109375 8.203125 -0.671875 7.921875 -0.390625 C 7.648438 -0.109375 7.210938 0.03125 6.609375 0.03125 Z M 2.5 0.03125 "/></g></g></g><g fill="#ac1929" fill-opacity="1"><g transform="translate(258.1286, 282.928225)"><g><path d="M 7.75 -7.4375 C 7.894531 -7.4375 7.96875 -7.363281 7.96875 -7.21875 L 7.96875 -6.109375 C 7.96875 -5.960938 7.894531 -5.890625 7.75 -5.890625 L 4.875 -5.890625 L 4.875 -0.21875 C 4.875 -0.0703125 4.804688 0 4.671875 0 L 3.390625 0 C 3.242188 0 3.171875 -0.0703125 3.171875 -0.21875 L 3.171875 -5.890625 L 0.296875 -5.890625 C 0.148438 -5.890625 0.078125 -5.960938 0.078125 -6.109375 L 0.078125 -7.21875 C 0.078125 -7.363281 0.148438 -7.4375 0.296875 -7.4375 Z M 7.75 -7.4375 "/></g></g></g><g fill="#ac1929" fill-opacity="1"><g transform="translate(272.360769, 282.928225)"><g><path d="M 3.34375 0 C 3.257812 0 3.203125 -0.015625 3.171875 -0.046875 C 3.140625 -0.078125 3.125 -0.132812 3.125 -0.21875 L 3.125 -2.75 L -0.15625 -7.078125 C -0.195312 -7.140625 -0.21875 -7.195312 -0.21875 -7.25 C -0.21875 -7.375 -0.128906 -7.4375 0.046875 -7.4375 L 1.34375 -7.4375 C 1.414062 -7.4375 1.476562 -7.421875 1.53125 -7.390625 C 1.582031 -7.367188 1.632812 -7.328125 1.6875 -7.265625 L 3.9375 -4.265625 L 4 -4.265625 L 6.265625 -7.28125 C 6.304688 -7.332031 6.351562 -7.367188 6.40625 -7.390625 C 6.457031 -7.421875 6.519531 -7.4375 6.59375 -7.4375 L 7.890625 -7.4375 C 7.972656 -7.4375 8.035156 -7.421875 8.078125 -7.390625 C 8.128906 -7.359375 8.15625 -7.3125 8.15625 -7.25 C 8.15625 -7.207031 8.128906 -7.15625 8.078125 -7.09375 L 4.828125 -2.75 L 4.828125 -0.21875 C 4.828125 -0.0703125 4.753906 0 4.609375 0 Z M 3.34375 0 "/></g></g></g><g fill="#ac1929" fill-opacity="1"><g transform="translate(286.47614, 282.928225)"><g><path d="M 1.21875 0 C 1.082031 0 1.015625 -0.0703125 1.015625 -0.21875 L 1.015625 -7.21875 C 1.015625 -7.363281 1.082031 -7.4375 1.21875 -7.4375 L 2.5 -7.4375 C 2.632812 -7.4375 2.703125 -7.363281 2.703125 -7.21875 L 2.703125 -1.5 L 7.296875 -1.5 C 7.429688 -1.5 7.5 -1.425781 7.5 -1.28125 L 7.5 -0.21875 C 7.5 -0.0703125 7.429688 0 7.296875 0 Z M 1.21875 0 "/></g></g></g><g fill="#ac1929" fill-opacity="1"><g transform="translate(300.31548, 282.928225)"><g><path d="M 7.734375 -1.40625 C 7.816406 -1.40625 7.875 -1.390625 7.90625 -1.359375 C 7.9375 -1.328125 7.953125 -1.269531 7.953125 -1.1875 L 7.953125 -0.21875 C 7.953125 -0.0703125 7.878906 0 7.734375 0 L 1.21875 0 C 1.082031 0 1.015625 -0.0703125 1.015625 -0.21875 L 1.015625 -7.21875 C 1.015625 -7.363281 1.082031 -7.4375 1.21875 -7.4375 L 7.625 -7.4375 C 7.769531 -7.4375 7.84375 -7.363281 7.84375 -7.21875 L 7.84375 -6.25 C 7.84375 -6.101562 7.769531 -6.03125 7.625 -6.03125 L 2.703125 -6.03125 L 2.703125 -4.4375 L 6.421875 -4.4375 C 6.503906 -4.4375 6.5625 -4.414062 6.59375 -4.375 C 6.625 -4.34375 6.640625 -4.285156 6.640625 -4.203125 L 6.640625 -3.28125 C 6.640625 -3.144531 6.566406 -3.078125 6.421875 -3.078125 L 2.703125 -3.078125 L 2.703125 -1.40625 Z M 7.734375 -1.40625 "/></g></g></g></svg>